<?xml version="1.0" encoding="utf-8"?>
<!-- Generator: Adobe Illustrator 25.0.0, SVG Export Plug-In . SVG Version: 6.00 Build 0)  -->
<svg version="1.1" id="레이어_1" xmlns="http://www.w3.org/2000/svg" xmlns:xlink="http://www.w3.org/1999/xlink" x="0px"
	 y="0px" viewBox="0 0 841.89 595.28" style="enable-background:new 0 0 841.89 595.28;" xml:space="preserve">
<style type="text/css">
	.st0{fill-rule:evenodd;clip-rule:evenodd;fill:#F3961B;}
	.st1{fill-rule:evenodd;clip-rule:evenodd;fill:#010100;}
	.st2{fill:#010100;}
</style>
<g>
	<g>
		<g>
			<path class="st0" d="M437.94,355.04c-27.61,20.37-67.63,31.21-102.09,31.21c-48.3,0-91.8-17.85-124.72-47.58
				c-2.58-2.33-0.28-5.52,2.83-3.71c35.51,20.67,79.43,33.11,124.79,33.11c30.6,0,64.23-6.35,95.18-19.48
				C438.59,346.61,442.51,351.66,437.94,355.04z"/>
			<path class="st0" d="M449.43,341.92c-3.53-4.52-23.34-2.14-32.24-1.08c-2.69,0.32-3.11-2.03-0.68-3.74
				c15.8-11.1,41.69-7.89,44.7-4.18c3.03,3.75-0.79,29.71-15.6,42.1c-2.28,1.91-4.44,0.89-3.43-1.63
				C445.5,365.08,452.96,346.45,449.43,341.92z"/>
		</g>
		<path class="st1" d="M417.81,258.7v-10.78c0.01-1.64,1.24-2.74,2.73-2.73l48.34,0c1.55,0,2.79,1.13,2.79,2.72l0,9.25
			c-0.01,1.55-1.32,3.58-3.64,6.79l-25.04,35.75c9.3-0.22,19.13,1.17,27.57,5.92c1.9,1.07,2.41,2.66,2.56,4.21v11.51
			c0,1.59-1.74,3.42-3.56,2.47c-14.88-7.79-34.62-8.65-51.07,0.09c-1.68,0.9-3.44-0.91-3.44-2.5v-10.94c0-1.75,0.03-4.74,1.8-7.41
			l29.01-41.62l-25.26,0C419.06,261.41,417.82,260.31,417.81,258.7z"/>
		<path class="st1" d="M241.49,326.06h-14.71c-1.4-0.09-2.52-1.14-2.63-2.49l0.01-75.48c0-1.51,1.27-2.72,2.84-2.72l13.7,0
			c1.43,0.07,2.58,1.16,2.67,2.53v9.85h0.28c3.57-9.53,10.3-13.98,19.35-13.98c9.2,0,14.96,4.45,19.08,13.98
			c3.57-9.53,11.67-13.98,20.32-13.98c6.18,0,12.9,2.54,17.02,8.26c4.67,6.35,3.71,15.57,3.71,23.67l-0.01,47.63
			c0,1.51-1.27,2.72-2.84,2.72h-14.69c-1.48-0.09-2.64-1.26-2.64-2.71l0-40.01c0-3.18,0.28-11.12-0.41-14.14
			c-1.1-5.08-4.39-6.51-8.65-6.51c-3.57,0-7.28,2.38-8.79,6.19c-1.51,3.81-1.37,10.16-1.37,14.45v40.01c0,1.51-1.27,2.72-2.84,2.72
			H266.2c-1.48-0.09-2.64-1.26-2.64-2.71l-0.01-40.01c0-8.42,1.37-20.81-9.06-20.81c-10.57,0-10.16,12.07-10.16,20.81l-0.01,40.01
			C244.32,324.85,243.05,326.06,241.49,326.06z"/>
		<path class="st1" d="M513.29,243.79c21.83,0,33.63,18.74,33.63,42.57c0,23.03-13.04,41.3-33.63,41.3
			c-21.42,0-33.08-18.74-33.08-42.09C480.2,262.05,492.01,243.79,513.29,243.79z M513.42,259.19c-10.85,0-11.53,14.77-11.53,23.98
			c0,9.21-0.14,28.91,11.4,28.91c11.4,0,11.94-15.88,11.94-25.57c0-6.35-0.27-13.98-2.2-20.01
			C521.38,261.26,518.09,259.19,513.42,259.19z"/>
		<path class="st1" d="M575.22,326.06h-14.65c-1.47-0.09-2.64-1.26-2.64-2.71l-0.02-75.51c0.12-1.38,1.34-2.46,2.82-2.46l13.64,0
			c1.28,0.07,2.34,0.94,2.61,2.11v11.54h0.28c4.12-10.32,9.88-15.25,20.04-15.25c6.59,0,13.04,2.38,17.16,8.89
			c3.84,6.04,3.84,16.2,3.84,23.51v47.49c-0.17,1.34-1.37,2.38-2.82,2.38h-14.74c-1.36-0.09-2.46-1.09-2.62-2.38V282.7
			c0-8.26,0.96-20.33-9.2-20.33c-3.57,0-6.86,2.38-8.51,6.04c-2.06,4.61-2.34,9.21-2.34,14.29v40.64
			C578.06,324.85,576.79,326.06,575.22,326.06z"/>
		<path class="st1" d="M379.28,290.01c0,5.73,0.14,10.51-2.75,15.6c-2.34,4.14-6.05,6.69-10.18,6.69c-5.64,0-8.94-4.3-8.94-10.67
			c0-12.52,11.24-14.8,21.87-14.8V290.01z M394.11,325.87c-0.97,0.87-2.38,0.93-3.47,0.34c-4.88-4.06-5.76-5.94-8.43-9.8
			c-8.07,8.22-13.79,10.69-24.25,10.69c-12.38,0-22.01-7.64-22.01-22.92c0-11.94,6.47-20.06,15.68-24.04
			c7.98-3.5,19.12-4.14,27.65-5.09v-1.91c0-3.5,0.28-7.64-1.79-10.66c-1.79-2.71-5.23-3.82-8.25-3.82c-5.61,0-10.6,2.87-11.82,8.83
			c-0.25,1.33-1.22,2.64-2.55,2.7l-14.25-1.54c-1.2-0.27-2.54-1.24-2.19-3.07c3.28-17.29,18.89-22.52,32.89-22.52
			c7.15,0,16.51,1.91,22.15,7.32c7.15,6.69,6.47,15.6,6.47,25.31v22.91c0,6.89,2.86,9.92,5.55,13.63c0.94,1.34,1.15,2.93-0.05,3.91
			c-3,2.52-8.34,7.15-11.28,9.77L394.11,325.87z"/>
		<path class="st1" d="M186.5,290.01c0,5.73,0.14,10.51-2.75,15.6c-2.34,4.14-6.05,6.69-10.18,6.69c-5.64,0-8.94-4.3-8.94-10.67
			c0-12.52,11.24-14.8,21.87-14.8V290.01z M201.32,325.87c-0.97,0.87-2.38,0.93-3.47,0.34c-4.89-4.06-5.76-5.94-8.43-9.8
			c-8.07,8.22-13.79,10.69-24.24,10.69c-12.38,0-22.01-7.64-22.01-22.92c0-11.94,6.47-20.06,15.68-24.04
			c7.98-3.5,19.12-4.14,27.65-5.09v-1.91c0-3.5,0.28-7.64-1.79-10.66c-1.79-2.71-5.23-3.82-8.25-3.82c-5.61,0-10.6,2.87-11.82,8.83
			c-0.26,1.33-1.22,2.64-2.56,2.7l-14.25-1.54c-1.2-0.27-2.54-1.24-2.19-3.07c3.27-17.29,18.89-22.52,32.89-22.52
			c7.15,0,16.51,1.91,22.15,7.32c7.15,6.69,6.47,15.6,6.47,25.31v22.91c0,6.89,2.86,9.92,5.55,13.63c0.94,1.34,1.15,2.93-0.05,3.91
			c-3,2.52-8.34,7.15-11.28,9.77L201.32,325.87z"/>
	</g>
	<g>
		<circle class="st2" cx="635.44" cy="322.5" r="4.71"/>
		<path class="st2" d="M663.98,308.95l10.78-11.93c0.26-0.27,0.76-0.76,0.76-1.5c0-0.72-0.53-1.08-0.69-1.17l-0.07-0.07l-2.49-1.71
			l-0.06-0.03c-0.05-0.03-0.11-0.07-0.16-0.1c-0.24-0.16-0.61-0.41-1.09-0.41c-0.72,0-1.15,0.5-1.36,0.74l-11.78,13.37v-27.72
			c0-1.69-1.02-1.87-1.46-1.87h-0.07l-0.07,0.01c-0.14,0.02-0.2,0.03-0.25,0.03c-0.14,0.01-0.2,0.01-0.64,0.12l-3.37,0.81
			c-0.74,0.18-1.22,0.88-1.22,1.77v46.16c0,1.09,0.71,1.8,1.8,1.8h3.5c1.09,0,1.8-0.71,1.8-1.8v-13.11l12.04,14.87
			c0.54,0.81,1.15,0.98,1.57,0.98c0.48,0,0.85-0.25,1.09-0.41c0.05-0.04,0.11-0.08,0.16-0.1l0.06-0.03l2.41-1.65l0.07-0.03
			l0.07-0.07c0.17-0.12,0.7-0.47,0.7-1.19c0-0.61-0.37-1.05-0.57-1.28L663.98,308.95z"/>
		<path class="st2" d="M694.44,292.03c-3.48,0-5.82,2.5-7.55,4.53c-0.54-1.92-1.57-4.53-3.15-4.53c-0.37,0-0.8,0.18-1.2,0.48
			l-2.4,1.5c-0.2,0.1-0.86,0.49-1.01,1.4l-0.01,0.08v0.08c0,0.19,0,0.65,0.87,2.17c0.94,1.68,1.02,3.97,1.02,4.63v23.08
			c0,1.09,0.71,1.8,1.8,1.8h3.5c1.09,0,1.8-0.71,1.8-1.8v-21.82c0.26-0.29,0.53-0.61,0.81-0.95c1.31-1.55,3.09-3.68,4.52-3.68
			c0.62,0,1,0.18,1.34,0.35c0.27,0.13,0.54,0.26,0.88,0.26c0.41,0,0.97-0.18,1.32-1.07l1.51-3.51c0.01-0.04,0.04-0.09,0.06-0.13
			c0.08-0.18,0.2-0.42,0.2-0.72C698.73,292.42,695.63,292.03,694.44,292.03z"/>
	</g>
</g>
</svg>
